<?xml version="1.0" encoding="UTF-8"?>
<svg width="60mm" height="40mm" version="1.1" viewBox="0 0 60 40" xmlns="http://www.w3.org/2000/svg" xmlns:xlink="http://www.w3.org/1999/xlink">
   <g class="rocker-switch-off">
      <rect x="26.7707" y="16.1315" width="25.8268" height="9.608642" fill="#251e29" stop-color="#000000" stroke-width=".219459" style="-inkscape-stroke:none"/>
      <path d="m40.3168 2.744337-13.54606 1.724127h-18.86787c-.8040586 0-1.451214.7118041-1.451214 1.595624v18.08053c0 .883817.6471551 1.595624 1.451214 1.595624h18.86787v-.000429l13.54606-1.724547 8.757088 1.115514 3.347377.425695c.798721.101676 1.441588-.528051 1.441588-1.411867v-18.08051c0-.8838202-.642867-1.677283-1.441588-1.778961l-3.347377-.4261135z" fill="url(#i)" stop-color="#000000" stroke-width=".221314" style="-inkscape-stroke:none"/>
      <g transform="matrix(.81 0 0 .81 5.857278 2.092191)">
         <path transform="matrix(.927873 0 0 1.000525 .1805476 -.00843043)" d="m4.421689 5.134314c-.9926652 0-1.791397.7313935-1.791397 1.639669v18.58084c0 .908272.7987315 1.639667 1.791397 1.639667h23.29372v-21.86018h-18.15163z" fill="url(#e)" filter="url(#a)" stop-color="#000000" stroke-width=".249283" style="-inkscape-stroke:none"/>
         <rect transform="matrix(.9914105 -.1307866 0 1 0 0)" x="26.0435" y="8.538675" width="16.8685" height="21.85418" fill="url(#d)" filter="url(#a)" stop-color="#000000" stroke-width=".250328" style="-inkscape-stroke:none"/>
         <path d="m42.54341 2.926359v21.84491l9.514365 1.145246 3.637222.437442c.86783.104426 1.566261-.542381 1.566261-1.450042v-18.56834c0-.9076646-.698431-1.722667-1.566261-1.827088l-3.637222-.43744z" fill="url(#c)" filter="url(#a)" stop-color="#000000" stroke-width=".233782" style="-inkscape-stroke:none"/>
      </g>
      <path d="m38.58727 20.84505.8-.114213v.8l-.8.114213zm-1.399992.199872.8-.114213v.8l-.8.114213zm-1.400001.199873.8-.114213v.8l-.8.114213zm-1.4.199873.8-.114213v.8l-.8.114213zm-1.400001.199873.800001-.114213v.8l-.800001.114213zm-1.4.199873.8-.114213v.8l-.8.114213zm-1.4.199873.8-.114213v.8l-.8.114213zm-1.400001.199873.8-.114213v.8l-.8.114213zm-1.4.199873.799999-.114213v.8l-.799999.114213zm-1.858333-3e-6h.8v.8h-.8zm-1.399998 1e-6h.800001v.8h-.800001zm-1.400001 0h.799999v.8h-.799999zm-1.399998 0h.8v.8h-.8zm-1.400002 0h.8v.8h-.8zm-1.399997-1e-6h.8v.8h-.8zm-1.400002 1e-6.800001-1e-6v.8l-.800001 1e-6zm-1.399999-1e-6h.799999v.8h-.799999zm-1.4 0h.8v.8h-.8zm-1.400001 0h.799999v.8h-.799999zm-1.4 0h.8v.8h-.8zm-1.4 1e-6h.800001v.8h-.800001zm-1.399998 0h.7999991v.8h-.7999991zm0 0h.7999991v.8h-.7999991zm29.85832-2.998982.8-.114213v.8l-.8.114213zm-1.399992.199872.8-.114213v.8l-.8.114213zm-1.400001.199873.8-.114213v.8l-.8.114213zm-1.4.199873.8-.114213v.8l-.8.114213zm-1.400001.199873.800001-.114213v.8l-.800001.114213zm-1.4.199873.8-.114213v.8l-.8.114213zm-1.4.199873.8-.114213v.8l-.8.114213zm-1.400001.199873.8-.114213v.8l-.8.114213zm-1.4.199873.799999-.114213v.8l-.799999.114213zm-1.858333-4e-6h.8v.8h-.8zm-1.399998 1e-6h.800001v.8h-.800001zm-1.400001 0h.799999v.8h-.799999zm-1.399998 0h.8v.8h-.8zm-1.400002 0h.8v.8h-.8zm-1.399997-1e-6h.8v.8h-.8zm-1.400002 1e-6.800001-1e-6v.8l-.800001 1e-6zm-1.399999-1e-6h.799999v.8h-.799999zm-1.4 0h.8v.8h-.8zm-1.400001 0h.799999v.8h-.799999zm-1.4 0h.8v.8h-.8zm-1.4 1e-6h.800001v.8h-.800001zm-1.399998 0h.7999991v.8h-.7999991zm0 0h.7999991v.8h-.7999991zm29.85832-2.998982.8-.114213v.8l-.8.114213zm-1.399992.199872.8-.114213v.8l-.8.114213zm-1.400001.199873.8-.114213v.8l-.8.114213zm-1.4.199873.8-.114213v.8l-.8.114213zm-1.400001.199873.800001-.114213v.8l-.800001.114213zm-1.4.199873.8-.114213v.8l-.8.114213zm-1.4.199873.8-.114213v.8l-.8.114213zm-1.400001.199873.8-.114213v.8l-.8.114213zm-1.4.199873.799999-.114213v.8l-.799999.114213zm-1.858333-3e-6h.8v.8h-.8zm-1.399998 1e-6h.800001v.8h-.800001zm-1.400001 0h.799999v.8h-.799999zm-1.399998 0h.8v.8h-.8zm-1.400002 0h.8v.8h-.8zm-1.399997-1e-6h.8v.8h-.8zm-1.400002 1e-6.800001-1e-6v.8l-.800001 1e-6zm-1.399999-1e-6h.799999v.8h-.799999zm-1.4 0h.8v.8h-.8zm-1.400001 0h.799999v.8h-.799999zm-1.4 0h.8v.8h-.8zm-1.4 1e-6h.800001v.8h-.800001zm-1.399998 0h.7999991v.8h-.7999991zm0 0h.7999991v.8h-.7999991zm29.85832-2.998982.8-.114213v.8l-.8.114213zm-1.399992.199872.8-.114213v.8l-.8.114213zm-1.400001.199873.8-.114213v.8l-.8.114213zm-1.4.199873.8-.114213v.8l-.8.114213zm-1.400001.199873.800001-.114213v.8l-.800001.114213zm-1.4.199873.8-.114213v.8l-.8.114213zm-1.4.199873.8-.114213v.8l-.8.114213zm-1.400001.199873.8-.114213v.8l-.8.114213zm-1.4.199873.799999-.114213v.8l-.799999.114213zm-1.858333-4e-6h.8v.8h-.8zm-1.399998 1e-6h.800001v.8h-.800001zm-1.400001 0h.799999v.8h-.799999zm-1.399998 0h.8v.8h-.8zm-1.400002 0h.8v.8h-.8zm-1.399997-1e-6h.8v.8h-.8zm-1.400002 1e-6.800001-1e-6v.8l-.800001 1e-6zm-1.399999-1e-6h.799999v.8h-.799999zm-1.4 0h.8v.8h-.8zm-1.400001 0h.799999v.8h-.799999zm-1.4 0h.8v.8h-.8zm-1.4 1e-6h.800001v.8h-.800001zm-1.399998 0h.7999991v.8h-.7999991zm0 0h.7999991v.8h-.7999991zm29.85832-2.998974.8-.114213v.8l-.8.114213zm-1.399992.199872.8-.114213v.8l-.8.114213zm-1.400001.199873.8-.114213v.8l-.8.114213zm-1.4.199873.8-.114213v.8l-.8.114213zm-1.400001.199873.800001-.114213v.8l-.800001.114213zm-1.4.199873.8-.114213v.8l-.8.114213zm-1.4.199873.8-.114213v.8l-.8.114213zm-1.400001.199873.8-.114213v.8l-.8.114213zm-1.4.199873.799999-.114213v.8l-.799999.114213zm-1.858333-4e-6h.8v.8h-.8zm-1.399998 1e-6h.800001v.8h-.800001zm-1.400001 0h.799999v.8h-.799999zm-1.399998 0h.8v.8h-.8zm-1.400002 0h.8v.8h-.8zm-1.399997-1e-6h.8v.8h-.8zm-1.400002 1e-6.800001-1e-6v.8l-.800001 1e-6zm-1.399999-1e-6h.799999v.8h-.799999zm-1.4 0h.8v.8h-.8zm-1.400001 0h.799999v.8h-.799999zm-1.4 0h.8v.8h-.8zm-1.4 1e-6h.800001v.8h-.800001zm-1.399998 0h.7999991v.8h-.7999991zm0 0h.7999991v.8h-.7999991zm29.85832-2.998982.8-.114213v.8l-.8.114213zm-1.399992.199872.8-.114213v.8l-.8.114213zm-1.400001.199873.8-.114213v.8l-.8.114213zm-1.4.199873.8-.114213v.8l-.8.114213zm-1.400001.199873.800001-.114213v.8l-.800001.114213zm-1.4.199873.8-.114213v.8l-.8.114213zm-1.4.199873.8-.114213v.8l-.8.114213zm-1.400001.199873.8-.114213v.8l-.8.114213zm-1.4.199873.799999-.114213v.8l-.799999.114213zm-1.858333-3e-6h.8v.8h-.8zm-1.399998 1e-6h.800001v.8h-.800001zm-1.400001 0h.799999v.8h-.799999zm-1.399998 0h.8v.8h-.8zm-1.400002 0h.8v.8h-.8zm-1.399997-1e-6h.8v.8h-.8zm-1.400002 1e-6.800001-1e-6v.8l-.800001 1e-6zm-1.399999-1e-6h.799999v.8h-.799999zm-1.4 0h.8v.8h-.8zm-1.400001 0h.799999v.8h-.799999zm-1.4 0h.8v.8h-.8zm-1.4 1e-6h.800001v.8h-.800001zm-1.399998 0h.7999991v.8h-.7999991zm0 0h.7999991v.8h-.7999991zm29.85832-2.998982.8-.114213v.8l-.8.114213zm-1.399992.199872.8-.114213v.8l-.8.114213zm-1.400001.199873.8-.114213v.8l-.8.114213zm-1.4.199873.8-.114213v.8l-.8.114213zm-1.400001.199873.800001-.114213v.8l-.800001.114213zm-1.4.199873.8-.114213v.8l-.8.114213zm-1.4.199873.8-.114213v.8l-.8.114213zm-1.400001.199873.8-.114213v.8l-.8.114213zm-1.4.199873.799999-.114213v.8l-.799999.114213zm-1.858333-4e-6h.8v.8h-.8zm-1.399998 1e-6h.800001v.8h-.800001zm-1.400001 0h.799999v.8h-.799999zm-1.399998 0h.8v.8h-.8zm-1.400002 0h.8v.8h-.8zm-1.399997-1e-6h.8v.8h-.8zm-1.400002 1e-6.800001-1e-6v.8l-.800001 1e-6zm-1.399999-1e-6h.799999v.8h-.799999zm-1.4 0h.8v.8h-.8zm-1.400001 0h.799999v.8h-.799999zm-1.4 0h.8v.8h-.8zm-1.4 1e-6h.800001v.8h-.800001zm-1.399998 0h.7999991v.8h-.7999991zm0 0h.7999991v.8h-.7999991zm29.85832-2.998982.8-.114213v.8l-.8.114213zm-1.399992.199872.8-.114213v.8l-.8.114213zm-1.400001.199873.8-.114213v.8l-.8.114213zm-1.4.199873.8-.114213v.8l-.8.114213zm-1.400001.199873.800001-.114213v.8l-.800001.114213zm-1.4.199873.8-.114213v.8l-.8.114213zm-1.4.199873.8-.114213v.8l-.8.114213zm-1.400001.199873.8-.114213v.8l-.8.114213zm-1.4.199873.799999-.114213v.8l-.799999.114213zm-1.858333-3e-6h.8v.8h-.8zm-1.399998 1e-6h.800001v.8h-.800001zm-1.400001 0h.799999v.8h-.799999zm-1.399998 0h.8v.8h-.8zm-1.400002 0h.8v.8h-.8zm-1.399997-1e-6h.8v.8h-.8zm-1.400002 1e-6.800001-1e-6v.8l-.800001 1e-6zm-1.399999-1e-6h.799999v.8h-.799999zm-1.4 0h.8v.8h-.8zm-1.400001 0h.799999v.8h-.799999zm-1.4 0h.8v.8h-.8zm-1.4 1e-6h.800001v.8h-.800001zm-1.399998 0h.7999991v.8h-.7999991zm0 0h.7999991v.8h-.7999991zm29.85832-2.998982.8-.114213v.8000004l-.8.114213zm-1.399992.199872.8-.114213v.8000004l-.8.114213zm-1.400001.1998734.8-.114213v.8l-.8.114213zm-1.4.199873.8-.114213v.8l-.8.114213zm-1.400001.199873.800001-.114213v.8l-.800001.114213zm-1.4.199873.8-.114213v.8l-.8.114213zm-1.4.199873.8-.114213v.8l-.8.114213zm-1.400001.199873.8-.114213v.8l-.8.114213zm-1.4.199873.799999-.114213v.8l-.799999.114213zm-1.858333-4e-6h.8v.8h-.8zm-1.399998 1e-6h.800001v.8h-.800001zm-1.400001 0h.799999v.8h-.799999zm-1.399998 0h.8v.8h-.8zm-1.400002 0h.8v.8h-.8zm-1.399997-1e-6h.8v.8h-.8zm-1.400002 1e-6.800001-1e-6v.8l-.800001 1e-6zm-1.399999-1e-6h.799999v.8h-.799999zm-1.4 0h.8v.8h-.8zm-1.400001 0h.799999v.8h-.799999zm-1.4 0h.8v.8h-.8zm-1.4 1e-6h.800001v.8h-.800001zm-1.399998 0h.7999991v.8h-.7999991zm0 0h.7999991v.8h-.7999991zm29.85832-2.998974.8-.1142132v.8l-.8.1142128zm-1.399992.1998718.8-.1142131v.7999999l-.8.114213zm-1.400001.199873.8-.1142131v.7999999l-.8.114213zm-1.4.199873.8-.1142132v.8l-.8.114213zm-1.400001.1998728.800001-.114213v.8l-.800001.114213zm-1.4.199873.8-.114213v.8000004l-.8.114213zm-1.4.199873.8-.114213v.8000004l-.8.114213zm-1.400001.199873.8-.114213v.8000004l-.8.114213zm-1.4.199873.799999-.114213v.8000004l-.799999.114213zm-1.858333-4e-6h.8v.8000004h-.8zm-1.399998 1e-6h.800001v.8000004h-.800001zm-1.400001 0h.799999v.8000004h-.799999zm-1.399998 0h.8v.8000004h-.8zm-1.400002 0h.8v.8000004h-.8zm-1.399997-1e-6h.8v.8000004h-.8zm-1.400002 1e-6.800001-1e-6v.8000004l-.800001 1e-6zm-1.399999-1e-6h.799999v.8000004h-.799999zm-1.4 0h.8v.8000004h-.8zm-1.400001 0h.799999v.8000004h-.799999zm-1.4 0h.8v.8000004h-.8zm-1.4 1e-6h.800001v.8000004h-.800001zm-1.399998 0h.7999991v.8000004h-.7999991zm0 0h.7999991v.8000004h-.7999991zm29.85832-2.998982.8-.1142132v.8l-.8.1142132zm-1.399992.1998718.8-.1142131v.8l-.8.1142131zm-1.400001.199873.8-.1142131v.8l-.8.1142131zm-1.4.199873.8-.1142132v.8l-.8.1142132zm-1.400001.1998729.800001-.1142131v.8l-.800001.1142131zm-1.4.199873.8-.1142131v.8l-.8.1142131zm-1.4.199873.8-.1142132v.8l-.8.1142132zm-1.400001.1998729.8-.1142131v.8l-.8.1142131zm-1.4.199873.799999-.114213v.8l-.799999.114213zm-1.858333-2.5e-6.8-1e-7v.7999996h-.8zm-1.399998 5e-7.800001-1e-7v.8000001h-.800001zm-1.400001 1e-7.799999 1e-7v.7999998h-.799999zm-1.399998-3e-7.8-1e-7v.8000003h-.8zm-1.400002 1e-7.8-1e-7v.8000002h-.8zm-1.399997-4e-7.8-1e-7v.7999996h-.8zm-1.400002 1e-7.800001-1e-7v.7999995l-.800001 1e-6zm-1.399999-2e-7.799999 1e-7v.7999995h-.799999zm-1.4 0 .8-1e-7v.7999997h-.8zm-1.400001 0h.799999v.7999996h-.799999zm-1.4 0 .8-2e-7v.7999998h-.8zm-1.4 8e-7.800001-1e-7v.7999999h-.800001zm-1.399998-2e-7h.7999991v.8h-.7999991zm0 0h.7999991v.8h-.7999991zm29.85832-2.998982.8-.1142132v.8l-.8.1142132zm-1.399992.1998718.8-.1142131v.8l-.8.1142131zm-1.400001.199873.8-.1142131v.8l-.8.1142131zm-1.4.199873.8-.1142132v.8l-.8.1142132zm-1.400001.1998729.800001-.1142131v.8l-.800001.1142131zm-1.4.199873.8-.1142131v.8l-.8.1142131zm-1.4.199873.8-.1142132v.8l-.8.1142132zm-1.400001.1998729.8-.1142131v.8l-.8.1142131zm-1.4.199873.799999-.114213v.8l-.799999.114213zm-1.858333-3.5e-6.8-1e-7v.8l-.8 1e-7zm-1.399998 5e-7.800001-1e-7v.8l-.800001 1e-7zm-1.400001 1e-7.799999 1e-7v.8l-.799999-1e-7zm-1.399998-3e-7.8-1e-7v.8l-.8 1e-7zm-1.400002 1e-7.8-1e-7v.8l-.8 1e-7zm-1.399997-4e-7.8-1e-7v.8l-.8 1e-7zm-1.400002 1e-7.800001-1e-7v.8l-.800001 1e-7zm-1.399999-2e-7.799999 1e-7v.8l-.799999-1e-7zm-1.4 0 .8-1e-7v.8l-.8 1e-7zm-1.399999 7e-7h.799999v.8h-.799999zm-1.400002-7e-7.8-2e-7v.8l-.8 2e-7zm-1.4 8e-7.800001-1e-7v.8l-.800001 1e-7zm-1.399998-2e-7h.7999991v.8h-.7999991zm0 0h.7999991v.8h-.7999991z" fill="url(#b)" stop-color="#000000" stroke-width=".218166"/>
      <path transform="matrix(.2645833 0 0 .2645833 -110.799 -65.44792)" d="m568.9766 252.6152-52.23633 7.4961h-72.75976c-3.10061 0-5.5957 3.09489-5.5957 6.9375v78.60937c0 3.8426 2.49509 6.9375 5.5957 6.9375h1.59765v-80.29492c0-2.93545 2.30612-5.29687 5.16993-5.29687h67.05078l51.90625-7.11524 29.58398 3.69727.86719.10937 10.44141 1.30469c.12645.0158.24518.0603.36914.0859l10.19336 1.3125c-.26213-3.5717-2.60239-6.66727-5.50586-7.08399l-12.90821-1.85351z" clip-path="url(#k)" fill="url(#g)" filter="url(#j)" stroke-width=".999999" style="-inkscape-stroke:none"/>
      <rect class="light-effects" transform="matrix(.8030425 -.1059372 0 .81 5.69829 2.120062)" x="26.0435" y="8.538675" width="16.868" height="21.85418" fill="url(#h)" filter="url(#l)" stop-color="#000000" stroke-width=".250328" style="-inkscape-stroke:none"/>
   </g>
   <defs>
      <filter id="a" x="-.008153366" y="-.005489433" width="1.016307" height="1.010979" color-interpolation-filters="sRGB">
         <feGaussianBlur result="blur" stdDeviation="0.05 0.05"/>
      </filter>
      <filter id="l" x="-.007114062" y="-.005490941" width="1.014228" height="1.010982" color-interpolation-filters="sRGB">
         <feGaussianBlur result="blur" stdDeviation="0.05 0.05"/>
      </filter>
      <linearGradient id="h" x1="27.33998" x2="41.44045" y1="18.66464" y2="18.66464" gradientTransform="matrix(1.196308,0,0,1.313039,-6.663534,-5.041626)" gradientUnits="userSpaceOnUse">
         <stop stop-color="#ffffff" stop-opacity="0" offset="0"/>
         <stop stop-color="#ffffff" stop-opacity=".2784314" offset=".9602155"/>
         <stop stop-color="#ffffff" stop-opacity=".05084235" offset="1"/>
      </linearGradient>
      <linearGradient id="i" x1=".7338053" x2="59.26615" y1="15.00012" y2="15.00012" gradientTransform="matrix(.81 0 0 .81 5.857278 2.092191)" gradientUnits="userSpaceOnUse">
         <stop stop-color="#1f1924" offset="0"/>
         <stop stop-color="#5a4a69" offset=".6963549"/>
         <stop stop-color="#201a25" offset=".7220631"/>
         <stop stop-color="#1f1924" offset="1"/>
      </linearGradient>
      <linearGradient id="e" x1="7.73232" x2="28.73207" y1="15.41046" y2="15.41046" gradientTransform="matrix(1.194543,0,0,1.313039,-6.606298,-4.170124)" gradientUnits="userSpaceOnUse">
         <stop stop-color="#1f1924" offset="0"/>
         <stop stop-color="#312738" offset="1"/>
      </linearGradient>
      <linearGradient id="d" x1="27.33998" x2="41.44045" y1="18.66464" y2="18.66464" gradientTransform="matrix(1.196308,0,0,1.313039,-6.663534,-5.041626)" gradientUnits="userSpaceOnUse">
         <stop stop-color="#292130" offset="0"/>
         <stop stop-color="#3d3245" offset="1"/>
      </linearGradient>
      <linearGradient id="c" x1="41.14519" x2="53.46609" y1="14.32997" y2="14.32997" gradientTransform="matrix(1.194543,0,0,1.313039,-6.606298,-4.170124)" gradientUnits="userSpaceOnUse">
         <stop stop-color="#3d3247" offset="0"/>
         <stop stop-color="#271f2c" offset="1"/>
      </linearGradient>
      <radialGradient id="b" cx="22.13836" cy="49.20028" r="15.4846" gradientTransform="matrix(1.994055 -.06348544 -.1524763 .6081603 -27.98416 -13.76715)" gradientUnits="userSpaceOnUse">
         <stop stop-color="#2b2332" offset="0"/>
         <stop stop-color="#463a51" offset="1"/>
      </radialGradient>
      <linearGradient id="g" x1="438.3848" x2="621.1602" y1="302.6055" y2="302.6055" gradientUnits="userSpaceOnUse">
         <stop stop-color="#ffffff" stop-opacity=".15" offset="0"/>
         <stop stop-color="#ffffff" stop-opacity=".05" offset="1"/>
      </linearGradient>
      <filter id="j" x="-.02232248" y="-.04080797" width="1.044645" height="1.081616" color-interpolation-filters="sRGB">
         <feGaussianBlur result="blur" stdDeviation="1.7 1.7"/>
      </filter>
      <clipPath id="k">
         <path d="m571.1462 257.7345-51.19771 6.51639h-71.31163c-3.03897 0-5.48493 2.69028-5.48493 6.0307v68.33586c0 3.34041 2.44596 6.0307 5.48493 6.0307h71.31163v-.002l51.19771-6.51797 33.09766 4.21611 12.65148 1.60893c3.01882.38429 5.44853-1.99578 5.44853-5.33619v-68.33579c0-3.34043-2.42971-6.33934-5.44853-6.72364l-12.65148-1.61051z" fill="url(#f)" stop-color="#000000" stroke-width=".836462" style="-inkscape-stroke:none"/>
      </clipPath>
      <linearGradient id="f" x1=".7338053" x2="59.26615" y1="15.00012" y2="15.00012" gradientTransform="matrix(3.061417 0 0 3.061417 440.9055 255.2697)" gradientUnits="userSpaceOnUse">
         <stop stop-color="#231e1e" offset="0"/>
         <stop stop-color="#625555" offset=".6963549"/>
         <stop stop-color="#241f1f" offset=".7220631"/>
         <stop stop-color="#231e1e" offset="1"/>
      </linearGradient>
   </defs>
</svg>
