<?xml version="1.0" encoding="UTF-8"?>
<svg width="60mm" height="40mm" version="1.1" viewBox="0 0 60 40" xmlns="http://www.w3.org/2000/svg" xmlns:xlink="http://www.w3.org/1999/xlink">
   <defs>
      <radialGradient id="b" cx="35.15266" cy="73.63197" r="16.70647" gradientTransform="matrix(1.616853 -.01948676 .00696584 .6983216 -20.21373 -35.79677)" gradientUnits="userSpaceOnUse">
         <stop stop-color="#c6bbd0" offset="0"/>
         <stop stop-color="#655478" offset="1"/>
      </radialGradient>
      <radialGradient id="c" cx="20.82104" cy="73.45338" r="6.16045" gradientTransform="matrix(-2.044904 .01990488 -.02371567 -2.943747 61.34482 230.4854)" gradientUnits="userSpaceOnUse">
         <stop stop-color="#9280a3" offset="0"/>
         <stop stop-color="#655478" offset="1"/>
      </radialGradient>
      <filter id="g" x="-.004393105" y="-.009971922" width="1.008786" height="1.019944" color-interpolation-filters="sRGB">
         <feGaussianBlur result="blur" stdDeviation="0.1 0.1"/>
      </filter>
      <filter id="f" x="-1.732286" y="-.04156679" width="4.464571" height="1.083134" color-interpolation-filters="sRGB">
         <feGaussianBlur result="blur" stdDeviation="0.45 0.45"/>
      </filter>
      <radialGradient id="a" cx="-39.53563" cy="62.65665" r="15.4846" gradientTransform="matrix(-1.077585 -.1496952 .00362287 .5703989 -6.702169 -27.5748)" gradientUnits="userSpaceOnUse">
         <stop stop-color="#b1a5bc" stop-opacity=".9607843" offset="0"/>
         <stop stop-color="#60506f" offset="1"/>
      </radialGradient>
      <filter id="e" x="-.0228619" y="-.04740848" width="1.045724" height="1.094817" color-interpolation-filters="sRGB">
         <feGaussianBlur result="blur" stdDeviation="1.7 1.7"/>
      </filter>
      <linearGradient id="d" x1="351.4493" x2="538.0722" y1="-78.3955" y2="-78.3955" gradientUnits="userSpaceOnUse">
         <stop stop-color="#ffffff" stop-opacity=".15" offset="0"/>
         <stop stop-color="#ffffff" stop-opacity=".15" offset="1"/>
      </linearGradient>
      <clipPath id="h">
         <path d="m406.7266-121.4258-33.0957 4.21289-12.65234 1.60937c-3.01878.3843-5.44922 3.38419-5.44922 6.72461v68.33594c0 3.340407 2.43044 5.720225 5.44922 5.335938l.16015-.01953v12.45898h156.8867v-11.74414h11.21094c3.03897-7e-6 5.48437-2.690831 5.48437-6.03125v-68.33594c0-3.34041-2.4454-6.03127-5.48437-6.03125h-71.3125z" fill="#493e3e" stop-color="#000000" stroke-width=".836462" style="-inkscape-stroke:none"/>
      </clipPath>
   </defs>
   <g>
      <g class="rocker-switch-on">
         <rect x="7.850923" y="18.38445" width="25.62886" height="7.238072" fill="#604f70" stop-color="#000000" stroke-width=".221315" style="-inkscape-stroke:none"/>
         <ellipse cx="7.86519" cy="24.18648" rx="1.462425" ry="1.436039" fill="#604f70" stop-color="#000000" stroke-width=".0786016" style="-inkscape-stroke:none"/>
         <path d="m19.93366 2.62666-8.756675 1.114676-3.347796.4261135c-.7987199.1016765-1.441586.8951407-1.441586 1.778961v18.08052c-1e-7.883816.6428665 1.513543 1.441586 1.411867l3.347796-.426113 8.756675-1.115096 13.54606 1.724547v.000428h18.86787c.804059-2e-6 1.451217-.711804 1.451214-1.595623v-18.08053c0-.8838185-.647157-1.595628-1.451214-1.595623h-18.86787z" fill="#5b4b6a" stop-color="#000000" stroke-width=".221314" style="-inkscape-stroke:none"/>
         <g transform="matrix(.81 0 0 .81 5.793223 1.974514)" filter="url(#g)">
            <path d="m17.4566 2.926294 1e-6 21.85415 16.67135 2.199116v.01431l13.83425-1e-6 2.9834 1e-6h4.764297c.919735-6e-6 1.659917-.73106 1.659918-1.639328l-1e-6-18.58098c-3e-6-.9082736-.740182-1.639332-1.659916-1.639333l-4.764297 1.3e-6-2.983401-1.3e-6-13.78178 1.3e-6 1e-6-.00197z" fill="url(#b)" stop-color="#000000" stroke-width=".23995" style="-inkscape-stroke:none"/>
            <path d="m17.4566 2.926294v21.84491l-9.514366 1.145246-3.637221.437444c-.8678301.104425-1.566262-.542382-1.566262-1.450042v-18.56834c0-.907663.6984312-1.722666 1.56626-1.827087l3.637223-.4374402z" fill="url(#c)" stop-color="#000000" stroke-width=".233782" style="-inkscape-stroke:none"/>
         </g>
         <rect transform="matrix(.49354 0 0 .7548615 11.36234 3.027477)" x="16.99568" y=".9586139" width=".6234538" height="25.98228" fill="#ffffff" fill-opacity=".3" filter="url(#f)" stop-color="#000000" stroke-width=".186876" style="-inkscape-stroke:none"/>
         <path d="m21.59868 20.6404-.8-.114213v.8l.8.114213zm1.399993.199871-.8-.114212v.8l.8.114212zm1.4.199873-.799999-.114213v.8l.799999.114213zm1.4.199873-.800001-.114213v.8l.800001.114213zm1.400001.199873-.799999-.114213v.8l.799999.114213zm1.4.199873-.799999-.114213v.8l.799999.114213zm1.4.199873-.800001-.114213v.8l.800001.114213zm1.4.199873-.8-.114213v.8l.8.114213zm1.400001.199873-.800001-.114213v.8l.800001.114213zm1.858334-3e-6h-.800001v.8h.800001zm1.399998-1e-6h-.8v.8h.8zm1.4 0h-.8v.8h.8zm1.399999 0h-.8v.8h.8zm1.400001 0h-.799999v.8h.799999zm1.399998 1e-6h-.800001v.8h.800001zm1.400002-1e-6-.8 1e-6v.8l.8-1e-6zm1.4 0-.8 1e-6v.8l.8-1e-6zm1.399999 1e-6h-.8v.8h.8zm1.400001 0h-.799999v.8h.799999zm1.400002 0h-.800001v.8h.800001zm1.399998 0h-.8v.8h.8zm1.4 0-.8-1e-6v.8l.8 1e-6zm-29.85833-2.998981-.8-.114213v.8l.8.114213zm1.399993.199871-.8-.114212v.8l.8.114212zm1.4.199873-.799999-.114213v.8l.799999.114213zm1.4.199873-.800001-.114213v.8l.800001.114213zm1.400001.199873-.799999-.114213v.8l.799999.114213zm1.4.199873-.799999-.114213v.8l.799999.114213zm1.4.199873-.800001-.114213v.8l.800001.114213zm1.4.199873-.8-.114213v.8l.8.114213zm1.400001.199873-.800001-.114213v.8l.800001.114213zm1.858334-3e-6h-.800001v.8h.800001zm1.399998-1e-6h-.8v.8h.8zm1.4 0h-.8v.8h.8zm1.399999 0h-.8v.8h.8zm1.400001 0h-.799999v.8h.799999zm1.399998 1e-6h-.800001v.8h.800001zm1.400002-1e-6-.8 1e-6v.8l.8-1e-6zm1.4 0-.8 1e-6v.8l.8-1e-6zm1.399999 1e-6h-.8v.8h.8zm1.400001 0h-.799999v.8h.799999zm1.400002 0h-.800001v.8h.800001zm1.399998 0h-.8v.8h.8zm1.4 0-.8-1e-6v.8l.8 1e-6zm-29.85833-2.99898-.8-.114213v.8l.8.114213zm1.399993.199871-.8-.114212v.8l.8.114212zm1.4.199873-.799999-.114213v.8l.799999.114213zm1.4.199873-.800001-.114213v.8l.800001.114213zm1.400001.199873-.799999-.114213v.8l.799999.114213zm1.4.199873-.799999-.114213v.8l.799999.114213zm1.4.199873-.800001-.114213v.8l.800001.114213zm1.4.199873-.8-.114213v.8l.8.114213zm1.400001.199873-.800001-.114213v.8l.800001.114213zm1.858334-3e-6h-.800001v.8h.800001zm1.399998-1e-6h-.8v.8h.8zm1.4 0h-.8v.8h.8zm1.399999 0h-.8v.8h.8zm1.400001 0h-.799999v.8h.799999zm1.399998 1e-6h-.800001v.8h.800001zm1.400002-1e-6-.8 1e-6v.8l.8-1e-6zm1.4 0-.8 1e-6v.8l.8-1e-6zm1.399999 1e-6h-.8v.8h.8zm1.400001 0h-.799999v.8h.799999zm1.400002 0h-.800001v.8h.800001zm1.399998 0h-.8v.8h.8zm1.4 0-.8-1e-6v.8l.8 1e-6zm-29.85833-2.998981-.8-.114213v.8l.8.114213zm1.399993.199871-.8-.114212v.8l.8.114212zm1.4.199873-.799999-.114213v.8l.799999.114213zm1.4.199873-.800001-.114213v.8l.800001.114213zm1.400001.199873-.799999-.114213v.8l.799999.114213zm1.4.199873-.799999-.114213v.8l.799999.114213zm1.4.199873-.800001-.114213v.8l.800001.114213zm1.4.199873-.8-.114213v.8l.8.114213zm1.400001.199873-.800001-.114213v.8l.800001.114213zm1.858334-3e-6h-.800001v.8h.800001zm1.399998-1e-6h-.8v.8h.8zm1.4 0h-.8v.8h.8zm1.399999 0h-.8v.8h.8zm1.400001 0h-.799999v.8h.799999zm1.399998 1e-6h-.800001v.8h.800001zm1.400002-1e-6-.8 1e-6v.8l.8-1e-6zm1.4 0-.8 1e-6v.8l.8-1e-6zm1.399999 1e-6h-.8v.8h.8zm1.400001 0h-.799999v.8h.799999zm1.400002 0h-.800001v.8h.800001zm1.399998 0h-.8v.8h.8zm1.4 0-.8-1e-6v.8l.8 1e-6zm-29.85833-2.998973-.8-.114213v.8l.8.114213zm1.399993.199871-.8-.114212v.8l.8.114212zm1.4.199873-.799999-.114213v.8l.799999.114213zm1.4.199873-.800001-.114213v.8l.800001.114213zm1.400001.199873-.799999-.114213v.8l.799999.114213zm1.4.199873-.799999-.114213v.8l.799999.114213zm1.4.199873-.800001-.114213v.8l.800001.114213zm1.4.199873-.8-.114213v.8l.8.114213zm1.400001.199873-.800001-.114213v.8l.800001.114213zm1.858334-3e-6h-.800001v.8h.800001zm1.399998-1e-6h-.8v.8h.8zm1.4 0h-.8v.8h.8zm1.399999 0h-.8v.8h.8zm1.400001 0h-.799999v.8h.799999zm1.399998 1e-6h-.800001v.8h.800001zm1.400002-1e-6-.8 1e-6v.8l.8-1e-6zm1.4 0-.8 1e-6v.8l.8-1e-6zm1.399999 1e-6h-.8v.8h.8zm1.400001 0h-.799999v.8h.799999zm1.400002 0h-.800001v.8h.800001zm1.399998 0h-.8v.8h.8zm1.4 0-.8-1e-6v.8l.8 1e-6zm-29.85833-2.99898-.8-.114213v.8l.8.114213zm1.399993.199871-.8-.114212v.8l.8.114212zm1.4.199873-.799999-.114213v.8l.799999.114213zm1.4.199873-.800001-.114213v.8l.800001.114213zm1.400001.199873-.799999-.114213v.8l.799999.114213zm1.4.199873-.799999-.114213v.8l.799999.114213zm1.4.199873-.800001-.114213v.8l.800001.114213zm1.4.199873-.8-.114213v.8l.8.114213zm1.400001.199873-.800001-.114213v.8l.800001.114213zm1.858334-3e-6h-.800001v.8h.800001zm1.399998-1e-6h-.8v.8h.8zm1.4 0h-.8v.8h.8zm1.399999 0h-.8v.8h.8zm1.400001 0h-.799999v.8h.799999zm1.399998 1e-6h-.800001v.8h.800001zm1.400002-1e-6-.8 1e-6v.8l.8-1e-6zm1.4 0-.8 1e-6v.8l.8-1e-6zm1.399999 1e-6h-.8v.8h.8zm1.400001 0h-.799999v.8h.799999zm1.400002 0h-.800001v.8h.800001zm1.399998 0h-.8v.8h.8zm1.4 0-.8-1e-6v.8l.8 1e-6zm-29.85833-2.998981-.8-.114213v.8l.8.114213zm1.399993.199871-.8-.114212v.8l.8.114212zm1.4.199873-.799999-.114213v.8l.799999.114213zm1.4.199873-.800001-.114213v.8l.800001.114213zm1.400001.199873-.799999-.114213v.8l.799999.114213zm1.4.199873-.799999-.114213v.8l.799999.114213zm1.4.199873-.800001-.114213v.8l.800001.114213zm1.4.199873-.8-.114213v.8l.8.114213zm1.400001.199873-.800001-.114213v.8l.800001.114213zm1.858334-3e-6h-.800001v.8h.800001zm1.399998-1e-6h-.8v.8h.8zm1.4 0h-.8v.8h.8zm1.399999 0h-.8v.8h.8zm1.400001 0h-.799999v.8h.799999zm1.399998 1e-6h-.800001v.8h.800001zm1.400002-1e-6-.8 1e-6v.8l.8-1e-6zm1.4 0-.8 1e-6v.8l.8-1e-6zm1.399999 1e-6h-.8v.8h.8zm1.400001 0h-.799999v.8h.799999zm1.400002 0h-.800001v.8h.800001zm1.399998 0h-.8v.8h.8zm1.4 0-.8-1e-6v.8l.8 1e-6zm-29.85833-2.99898-.8-.114213v.8l.8.114213zm1.399993.199871-.8-.114212v.8l.8.114212zm1.4.199873-.799999-.114213v.8l.799999.114213zm1.4.199873-.800001-.114213v.8l.800001.114213zm1.400001.199873-.799999-.114213v.8l.799999.114213zm1.4.199873-.799999-.114213v.8l.799999.114213zm1.4.199873-.800001-.114213v.8l.800001.114213zm1.4.199873-.8-.114213v.8l.8.114213zm1.400001.199873-.800001-.114213v.8l.800001.114213zm1.858334-3e-6h-.800001v.8h.800001zm1.399998-1e-6h-.8v.8h.8zm1.4 0h-.8v.8h.8zm1.399999 0h-.8v.8h.8zm1.400001 0h-.799999v.8h.799999zm1.399998 1e-6h-.800001v.8h.800001zm1.400002-1e-6-.8 1e-6v.8l.8-1e-6zm1.4 0-.8 1e-6v.8l.8-1e-6zm1.399999 1e-6h-.8v.8h.8zm1.400001 0h-.799999v.8h.799999zm1.400002 0h-.800001v.8h.800001zm1.399998 0h-.8v.8h.8zm1.4 0-.8-1e-6v.8l.8 1e-6zm-29.85833-2.998981-.8-.114213v.7999996l.8.114213zm1.399993.199871-.8-.114212v.7999996l.8.114212zm1.4.199873-.799999-.114213v.7999996l.799999.114213zm1.4.1998726-.800001-.1142126v.7999996l.800001.114213zm1.400001.199873-.799999-.114213v.8l.799999.114213zm1.4.199873-.799999-.114213v.8l.799999.114213zm1.4.199873-.800001-.114213v.8l.800001.114213zm1.4.199873-.8-.114213v.8l.8.114213zm1.400001.199873-.800001-.114213v.8l.800001.114213zm1.858334-3e-6h-.800001v.8h.800001zm1.399998-1e-6h-.8v.8h.8zm1.4 0h-.8v.8h.8zm1.399999 0h-.8v.8h.8zm1.400001 0h-.799999v.8h.799999zm1.399998 1e-6h-.800001v.8h.800001zm1.400002-1e-6-.8 1e-6v.8l.8-1e-6zm1.4 0-.8 1e-6v.8l.8-1e-6zm1.399999 1e-6h-.8v.8h.8zm1.400001 0h-.799999v.8h.799999zm1.400002 0h-.800001v.8h.800001zm1.399998 0h-.8v.8h.8zm1.4 0-.8-1e-6v.8l.8 1e-6zm-29.85833-2.998973-.8-.114213v.8l.8.114213zm1.399993.199871-.8-.114212v.8l.8.114212zm1.4.199873-.799999-.114213v.8l.799999.114213zm1.4.199873-.800001-.114213v.8l.800001.114213zm1.400001.199873-.799999-.114213v.8l.799999.114213zm1.4.199873-.799999-.114213v.8l.799999.114213zm1.4.199873-.800001-.114213v.8l.800001.1142126zm1.4.199873-.8-.114213v.7999996l.8.114213zm1.400001.199873-.800001-.114213v.7999996l.800001.114213zm1.858334 1e-6h-.800001v.7999996h.800001zm1.399998-1e-6h-.8v.7999996h.8zm1.4 0h-.8v.7999996h.8zm1.399999 0h-.8v.7999996h.8zm1.400001 0h-.799999v.7999996h.799999zm1.399998 1e-6h-.800001v.7999996h.800001zm1.400002-1e-6-.8 1e-6v.7999996l.8-1e-6zm1.4 0-.8 1e-6v.7999996l.8-1e-6zm1.399999 1e-6h-.8v.7999996h.8zm1.400001 0h-.799999v.7999996h.799999zm1.400002 0h-.800001v.7999996h.800001zm1.399998 0h-.8v.7999996h.8zm1.4 0-.8-1e-6v.7999996l.8 1e-6zm-29.85833-2.998984-.8-.114213v.8l.8.114213zm1.399993.199871-.8-.114212v.8l.8.114212zm1.4.199873-.799999-.114213v.8l.799999.114213zm1.4.199873-.800001-.114213v.8l.800001.114213zm1.400001.199873-.799999-.114213v.8l.799999.114213zm1.4.199873-.799999-.114213v.8l.799999.114213zm1.4.199873-.800001-.114213v.8l.800001.114213zm1.4.199873-.8-.114213v.8l.8.114213zm1.400001.199873-.800001-.114213v.8l.800001.114213zm1.858334 0h-.800001v.8h.800001zm1.399998-1e-6h-.8v.8h.8zm1.4 0h-.8v.8h.8zm1.399999 0h-.8v.8h.8zm1.400001 0h-.799999v.8h.799999zm1.399998 1e-6h-.800001v.8h.800001zm1.400002-1e-6-.8 1e-6v.8l.8-1e-6zm1.4 0-.8 1e-6v.8l.8-1e-6zm1.399999 1e-6h-.8v.8h.8zm1.400001 0h-.799999v.8h.799999zm1.400002 0h-.800001v.8h.800001zm1.399998 0h-.8v.8h.8zm1.4 0-.8-1e-6v.8l.8 1e-6zm-29.85833-2.998984-.8-.114213v.8l.8.114213zm1.399993.199871-.8-.114212v.8l.8.114212zm1.4.199873-.799999-.114213v.8l.799999.114213zm1.4.199873-.800001-.114213v.8l.800001.114213zm1.400001.199873-.799999-.114213v.8l.799999.114213zm1.4.199873-.799999-.114213v.8l.799999.114213zm1.4.199873-.800001-.114213v.8l.800001.114213zm1.4.199873-.8-.114213v.8l.8.114213zm1.400001.199873-.800001-.114213v.8l.800001.114213zm1.858334 1e-6h-.800001v.8h.800001zm1.399998-1e-6h-.8v.8h.8zm1.4 0h-.8v.8h.8zm1.399999 0h-.8v.8h.8zm1.400001 0h-.799999v.8h.799999zm1.399998 1e-6h-.800001v.8h.800001zm1.400002-1e-6-.8 1e-6v.8l.8-1e-6zm1.4 0-.8 1e-6v.8l.8-1e-6zm1.399999 1e-6h-.8v.8h.8zm1.400001 0h-.799999v.8h.799999zm1.400002 0h-.800001v.8h.800001zm1.399998 0h-.8v.8h.8zm1.4 0-.8-1e-6v.8l.8 1e-6z" fill="url(#a)" stop-color="#000000" stroke-width=".218166"/>
         <path transform="matrix(.2645833 0 0 .2645833 -87.67941 34.7539)" d="m406.7266-121.4258-33.0957 4.21289-12.65234 1.60937c-3.01878.3843-5.44922 3.38419-5.44922 6.72461v68.33594c0 2.587379 1.46529 4.581026 3.52539 5.177735v-72.35547c0-2.77828 2.24862-5.27218 5.04297-5.5918l11.71093-1.33789 30.63477-3.50391 50.39258 6.31641h77.15625c-.94003-1.82828-2.70171-3.07228-4.75586-3.07227h-71.3125z" clip-path="url(#h)" fill="url(#d)" filter="url(#e)" stop-color="#000000" stroke-width=".836462" style="-inkscape-stroke:none"/>
      </g>
   </g>
</svg>
